<mxfile host="65bd71144e">
    <diagram id="88pZRFUGG9QtHxRsaTs1" name="Page-1">
        <mxGraphModel dx="988" dy="918" grid="1" gridSize="10" guides="1" tooltips="1" connect="1" arrows="1" fold="1" page="0" pageScale="1" pageWidth="690" pageHeight="980" math="0" shadow="0">
            <root>
                <mxCell id="0"/>
                <mxCell id="1" parent="0"/>
                <mxCell id="10" value="" style="rounded=1;whiteSpace=wrap;html=1;fillColor=#FFFFFF;fontColor=#333333;strokeColor=#0066ff;strokeWidth=2;arcSize=5;" parent="1" vertex="1">
                    <mxGeometry x="40" y="-80" width="340" height="270" as="geometry"/>
                </mxCell>
                <mxCell id="11" value="" style="rounded=1;whiteSpace=wrap;html=1;fillColor=none;dashed=1;fontColor=#0066ff;strokeColor=#0066ff;strokeWidth=2;arcSize=4;" parent="1" vertex="1">
                    <mxGeometry x="50" y="-70" width="320" height="250" as="geometry"/>
                </mxCell>
                <mxCell id="12" value="namespace/tenant" style="text;html=1;strokeColor=none;fillColor=none;align=left;verticalAlign=middle;whiteSpace=wrap;rounded=0;fontColor=#0066ff;strokeWidth=2;" parent="1" vertex="1">
                    <mxGeometry x="75" y="-70" width="190" height="20" as="geometry"/>
                </mxCell>
                <mxCell id="13" value="vm" style="rounded=1;whiteSpace=wrap;html=1;fillColor=#FFFFFF;fontColor=#0066ff;strokeColor=#0066ff;strokeWidth=2;" parent="1" vertex="1">
                    <mxGeometry x="60" y="130" width="40" height="40" as="geometry"/>
                </mxCell>
                <mxCell id="14" value="vm" style="rounded=1;whiteSpace=wrap;html=1;fillColor=#FFFFFF;fontColor=#0066ff;strokeColor=#0066ff;strokeWidth=2;" parent="1" vertex="1">
                    <mxGeometry x="110" y="130" width="40" height="40" as="geometry"/>
                </mxCell>
                <mxCell id="15" value="vm" style="rounded=1;whiteSpace=wrap;html=1;fillColor=#FFFFFF;fontColor=#0066ff;strokeColor=#0066ff;strokeWidth=2;" parent="1" vertex="1">
                    <mxGeometry x="160" y="130" width="40" height="40" as="geometry"/>
                </mxCell>
                <mxCell id="33" value="vm" style="rounded=1;whiteSpace=wrap;html=1;fillColor=#FFFFFF;fontColor=#0066ff;strokeColor=#0066ff;strokeWidth=2;" parent="1" vertex="1">
                    <mxGeometry x="210" y="130" width="40" height="40" as="geometry"/>
                </mxCell>
                <mxCell id="34" value="vm" style="rounded=1;whiteSpace=wrap;html=1;fillColor=#FFFFFF;fontColor=#0066ff;strokeColor=#0066ff;dashed=1;strokeWidth=2;" parent="1" vertex="1">
                    <mxGeometry x="260" y="130" width="40" height="40" as="geometry"/>
                </mxCell>
                <mxCell id="35" value="vm" style="rounded=1;whiteSpace=wrap;html=1;fillColor=#FFFFFF;fontColor=#0066ff;strokeColor=#0066ff;dashed=1;strokeWidth=2;" parent="1" vertex="1">
                    <mxGeometry x="310" y="130" width="40" height="40" as="geometry"/>
                </mxCell>
                <mxCell id="61" style="edgeStyle=orthogonalEdgeStyle;html=1;exitX=0;exitY=0.5;exitDx=0;exitDy=0;entryX=0;entryY=0.5;entryDx=0;entryDy=0;fontColor=#0066ff;strokeWidth=2;strokeColor=#0066ff;" parent="1" source="36" target="9" edge="1">
                    <mxGeometry relative="1" as="geometry">
                        <Array as="points">
                            <mxPoint y="105"/>
                            <mxPoint y="215"/>
                        </Array>
                    </mxGeometry>
                </mxCell>
                <mxCell id="62" value="manage &lt;br&gt;services" style="edgeLabel;html=1;align=center;verticalAlign=middle;resizable=0;points=[];fontColor=#0066ff;" parent="61" vertex="1" connectable="0">
                    <mxGeometry x="-0.0057" y="-2" relative="1" as="geometry">
                        <mxPoint as="offset"/>
                    </mxGeometry>
                </mxCell>
                <mxCell id="36" value="Deckhouse Kubernetes Platform" style="rounded=0;whiteSpace=wrap;html=1;fillColor=#0066ff;fontColor=#FFFFFF;strokeColor=#0066ff;strokeWidth=2;" parent="1" vertex="1">
                    <mxGeometry x="60" y="90" width="290" height="30" as="geometry"/>
                </mxCell>
                <mxCell id="41" value="" style="rounded=0;whiteSpace=wrap;html=1;fillColor=#FFFFFF;fontColor=#0066ff;strokeColor=#0066ff;strokeWidth=2;" parent="1" vertex="1">
                    <mxGeometry x="60" y="-50" width="290" height="140" as="geometry"/>
                </mxCell>
                <mxCell id="42" value="service&lt;br&gt;LB" style="rounded=0;whiteSpace=wrap;html=1;fillColor=#FFFFFF;fontColor=#0066ff;strokeColor=#0066ff;strokeWidth=2;" parent="1" vertex="1">
                    <mxGeometry x="95" y="-4" width="70" height="30" as="geometry"/>
                </mxCell>
                <mxCell id="43" value="" style="shape=cylinder3;whiteSpace=wrap;html=1;boundedLbl=1;backgroundOutline=1;size=9.344827586206804;fillColor=#FFFFFF;fontColor=#0066ff;strokeColor=#0066ff;strokeWidth=2;" parent="1" vertex="1">
                    <mxGeometry x="260" y="20" width="50" height="30" as="geometry"/>
                </mxCell>
                <mxCell id="44" value="" style="shape=cylinder3;whiteSpace=wrap;html=1;boundedLbl=1;backgroundOutline=1;size=9.344827586206804;fillColor=#FFFFFF;fontColor=#0066ff;strokeColor=#0066ff;strokeWidth=2;" parent="1" vertex="1">
                    <mxGeometry x="280" y="5" width="50" height="30" as="geometry"/>
                </mxCell>
                <mxCell id="45" value="" style="shape=cylinder3;whiteSpace=wrap;html=1;boundedLbl=1;backgroundOutline=1;size=9.344827586206804;fillColor=#f5f5f5;fontColor=#0066ff;strokeColor=#0066ff;strokeWidth=2;" parent="1" vertex="1">
                    <mxGeometry x="260" y="-4" width="50" height="30" as="geometry"/>
                </mxCell>
                <mxCell id="46" value="service&lt;br&gt;LB" style="rounded=0;whiteSpace=wrap;html=1;fillColor=#FFFFFF;fontColor=#0066ff;strokeColor=#0066ff;strokeWidth=2;" parent="1" vertex="1">
                    <mxGeometry x="81" y="6" width="70" height="30" as="geometry"/>
                </mxCell>
                <mxCell id="47" value="service&lt;br&gt;LB" style="rounded=0;whiteSpace=wrap;html=1;fillColor=#FFFFFF;fontColor=#0066ff;strokeColor=#0066ff;strokeWidth=2;" parent="1" vertex="1">
                    <mxGeometry x="91" y="16" width="70" height="30" as="geometry"/>
                </mxCell>
                <mxCell id="2" value="node" style="rounded=1;whiteSpace=wrap;html=1;fillColor=#FFFFFF;fontColor=#0066ff;strokeColor=#0066ff;strokeWidth=2;" parent="1" vertex="1">
                    <mxGeometry x="40" y="240" width="40" height="80" as="geometry"/>
                </mxCell>
                <mxCell id="3" value="node" style="rounded=1;whiteSpace=wrap;html=1;fillColor=#FFFFFF;fontColor=#0066ff;strokeColor=#0066ff;strokeWidth=2;" parent="1" vertex="1">
                    <mxGeometry x="90" y="240" width="40" height="80" as="geometry"/>
                </mxCell>
                <mxCell id="4" value="node" style="rounded=1;whiteSpace=wrap;html=1;fillColor=#FFFFFF;fontColor=#0066ff;strokeColor=#0066ff;strokeWidth=2;" parent="1" vertex="1">
                    <mxGeometry x="140" y="240" width="40" height="80" as="geometry"/>
                </mxCell>
                <mxCell id="5" value="node" style="rounded=1;whiteSpace=wrap;html=1;fillColor=#FFFFFF;fontColor=#0066ff;strokeColor=#0066ff;strokeWidth=2;" parent="1" vertex="1">
                    <mxGeometry x="190" y="240" width="40" height="80" as="geometry"/>
                </mxCell>
                <mxCell id="6" value="node" style="rounded=1;whiteSpace=wrap;html=1;fillColor=#FFFFFF;fontColor=#0066ff;strokeColor=#0066ff;strokeWidth=2;" parent="1" vertex="1">
                    <mxGeometry x="240" y="240" width="40" height="80" as="geometry"/>
                </mxCell>
                <mxCell id="7" value="node" style="rounded=1;whiteSpace=wrap;html=1;fillColor=#FFFFFF;fontColor=#0066ff;strokeColor=#0066ff;strokeWidth=2;" parent="1" vertex="1">
                    <mxGeometry x="290" y="240" width="40" height="80" as="geometry"/>
                </mxCell>
                <mxCell id="8" value="node" style="rounded=1;whiteSpace=wrap;html=1;fillColor=#FFFFFF;fontColor=#0066ff;strokeColor=#0066ff;strokeWidth=2;" parent="1" vertex="1">
                    <mxGeometry x="340" y="240" width="40" height="80" as="geometry"/>
                </mxCell>
                <mxCell id="39" style="html=1;exitX=0.75;exitY=0;exitDx=0;exitDy=0;fontColor=#0066ff;fillColor=#f5f5f5;strokeColor=#0066ff;strokeWidth=2;" parent="1" source="9" target="35" edge="1">
                    <mxGeometry relative="1" as="geometry"/>
                </mxCell>
                <mxCell id="40" style="html=1;exitX=0.75;exitY=0;exitDx=0;exitDy=0;entryX=0.5;entryY=1;entryDx=0;entryDy=0;fontColor=#0066ff;fillColor=#f5f5f5;strokeColor=#0066ff;strokeWidth=2;" parent="1" source="9" target="34" edge="1">
                    <mxGeometry relative="1" as="geometry"/>
                </mxCell>
                <mxCell id="59" style="edgeStyle=none;html=1;exitX=0.5;exitY=0;exitDx=0;exitDy=0;fontColor=#0066ff;fillColor=#f5f5f5;strokeColor=#0066ff;strokeWidth=2;" parent="1" source="9" target="47" edge="1">
                    <mxGeometry relative="1" as="geometry"/>
                </mxCell>
                <mxCell id="9" value="Deckhouse Virtualization" style="rounded=1;whiteSpace=wrap;html=1;fillColor=#0066ff;fontColor=#FFFFFF;strokeColor=#0066ff;strokeWidth=2;" parent="1" vertex="1">
                    <mxGeometry x="40" y="200" width="340" height="30" as="geometry"/>
                </mxCell>
                <mxCell id="37" style="edgeStyle=orthogonalEdgeStyle;html=1;exitX=1;exitY=0.5;exitDx=0;exitDy=0;entryX=1;entryY=0.5;entryDx=0;entryDy=0;fontColor=#0066ff;strokeWidth=2;strokeColor=#0066ff;" parent="1" source="36" target="9" edge="1">
                    <mxGeometry relative="1" as="geometry">
                        <Array as="points">
                            <mxPoint x="420" y="105"/>
                            <mxPoint x="420" y="215"/>
                        </Array>
                    </mxGeometry>
                </mxCell>
                <mxCell id="38" value="manage &lt;br&gt;nodes" style="edgeLabel;html=1;align=center;verticalAlign=middle;resizable=0;points=[];labelBackgroundColor=none;fontColor=#0066ff;" parent="37" vertex="1" connectable="0">
                    <mxGeometry x="0.0313" y="-1" relative="1" as="geometry">
                        <mxPoint x="1" y="-9" as="offset"/>
                    </mxGeometry>
                </mxCell>
                <mxCell id="54" style="edgeStyle=orthogonalEdgeStyle;html=1;exitX=1;exitY=0.25;exitDx=0;exitDy=0;entryX=1;entryY=0.75;entryDx=0;entryDy=0;fontColor=#0066ff;strokeWidth=2;strokeColor=#0066ff;" parent="1" source="36" target="9" edge="1">
                    <mxGeometry relative="1" as="geometry">
                        <Array as="points">
                            <mxPoint x="460" y="97"/>
                            <mxPoint x="460" y="223"/>
                        </Array>
                    </mxGeometry>
                </mxCell>
                <mxCell id="55" value="manage&lt;br&gt;storage" style="edgeLabel;html=1;align=center;verticalAlign=middle;resizable=0;points=[];fontColor=#0066ff;" parent="54" vertex="1" connectable="0">
                    <mxGeometry x="0.1633" y="-2" relative="1" as="geometry">
                        <mxPoint y="9" as="offset"/>
                    </mxGeometry>
                </mxCell>
                <mxCell id="52" style="edgeStyle=none;html=1;exitX=0.875;exitY=0.5;exitDx=0;exitDy=0;exitPerimeter=0;fontColor=#0066ff;strokeWidth=2;strokeColor=#0066ff;" parent="1" source="49" target="46" edge="1">
                    <mxGeometry relative="1" as="geometry"/>
                </mxCell>
                <mxCell id="49" value="External &lt;br&gt;networks" style="ellipse;shape=cloud;whiteSpace=wrap;html=1;fillColor=#FFFFFF;fontColor=#0066ff;strokeColor=#0066ff;strokeWidth=2;" parent="1" vertex="1">
                    <mxGeometry x="-130" y="-20" width="120" height="80" as="geometry"/>
                </mxCell>
                <mxCell id="56" style="html=1;exitX=0.5;exitY=0;exitDx=0;exitDy=0;fontColor=#0066ff;fillColor=#f5f5f5;strokeColor=#0066ff;strokeWidth=2;" parent="1" source="9" target="43" edge="1">
                    <mxGeometry relative="1" as="geometry"/>
                </mxCell>
            </root>
        </mxGraphModel>
    </diagram>
</mxfile>
